<?xml version="1.0" standalone="no"?>
<!DOCTYPE svg PUBLIC "-//W3C//DTD SVG 20010904//EN"
 "http://www.w3.org/TR/2001/REC-SVG-20010904/DTD/svg10.dtd">
<svg version="1.0" xmlns="http://www.w3.org/2000/svg"
 width="428.000000pt" height="436.000000pt" viewBox="0 0 428.000000 436.000000"
 preserveAspectRatio="xMidYMid meet">
<g transform="translate(0.000000,436.000000) scale(0.100000,-0.100000)"
fill="#000000" stroke="none">
<path d="M1965 4154 c-214 -30 -427 -95 -602 -182 -305 -152 -526 -340 -730
-621 -144 -197 -246 -416 -312 -671 -50 -195 -56 -247 -55 -495 1 -209 3 -242
27 -355 30 -140 66 -265 74 -257 3 3 -4 34 -15 69 -91 285 -106 657 -37 939
87 359 252 451 780 436 635 -19 851 -168 944 -652 50 -264 77 -765 68 -1275
-9 -493 -34 -643 -124 -722 -28 -25 -99 -48 -148 -48 -180 0 -550 147 -738
293 -21 16 -40 27 -43 24 -9 -8 135 -102 249 -162 181 -96 375 -159 617 -202
143 -25 461 -24 605 1 265 46 531 142 712 256 35 23 69 38 75 34 6 -4 9 -3 6
2 -4 5 33 38 80 74 74 55 138 111 224 193 10 9 18 23 18 29 0 7 -6 3 -14 -8
-20 -27 -198 -183 -261 -228 -154 -108 -333 -200 -490 -250 -239 -76 -364 -72
-438 14 -74 87 -97 243 -104 720 -8 512 17 978 67 1245 91 492 308 644 945
662 538 15 696 -76 784 -457 68 -292 47 -664 -55 -964 -13 -38 -22 -71 -20
-73 9 -9 64 173 90 301 55 263 44 595 -29 876 -25 96 -112 326 -152 400 -170
315 -403 574 -680 757 -75 49 -253 140 -348 178 -103 41 -294 92 -408 111
-140 22 -435 26 -562 8z m335 -14 c3 -1 30 -3 60 -5 101 -7 141 -13 158 -27
13 -11 14 -11 7 1 -6 11 -4 13 11 6 10 -4 27 -7 36 -7 23 1 32 -13 10 -16 -62
-6 -95 -21 -88 -39 3 -8 2 -12 -3 -9 -16 11 -41 -74 -41 -140 0 -77 37 -196
81 -261 16 -23 29 -46 29 -52 0 -6 12 -19 27 -28 45 -29 75 -61 69 -72 -4 -6
4 -8 19 -5 14 2 25 0 25 -5 0 -6 16 -13 35 -17 19 -3 38 -10 41 -15 3 -5 -3
-6 -13 -2 -10 3 -15 3 -11 -2 4 -4 22 -9 40 -11 18 -2 34 -8 36 -14 2 -5 9 -7
17 -4 7 3 27 -2 43 -10 35 -18 242 -46 290 -39 18 3 39 0 47 -7 8 -6 18 -9 24
-6 5 3 51 8 103 11 142 7 214 31 225 76 3 10 9 17 13 14 4 -3 7 3 6 12 0 10 4
18 11 18 20 0 37 22 24 30 -6 3 -10 3 -9 -2 2 -4 -1 -10 -6 -13 -5 -3 -13 7
-17 23 l-7 27 29 -21 c17 -12 28 -27 25 -35 -3 -8 0 -11 10 -7 10 4 17 -2 21
-17 4 -16 8 -18 14 -8 7 10 9 9 9 -4 0 -18 25 -52 70 -94 13 -13 21 -26 17
-30 -3 -4 4 -15 16 -25 12 -10 17 -18 10 -19 -6 0 -14 6 -16 13 -4 9 -6 9 -6
0 -1 -7 12 -19 29 -28 18 -9 27 -21 24 -29 -3 -8 0 -17 7 -22 8 -5 10 -3 4 6
-6 9 -4 11 4 6 7 -5 10 -14 7 -21 -2 -7 3 -15 12 -17 10 -3 18 -15 19 -28 1
-12 10 -32 20 -44 26 -31 45 -67 39 -74 -3 -3 -6 1 -6 8 0 7 -2 11 -5 8 -9 -8
6 -38 16 -32 5 3 9 0 9 -5 0 -22 2 -26 17 -44 9 -9 13 -20 10 -24 -4 -3 -7 0
-7 7 0 7 -2 11 -5 8 -10 -9 7 -38 18 -31 6 3 7 1 3 -6 -4 -6 -3 -18 4 -26 9
-11 7 -12 -9 -8 -12 3 -18 10 -14 16 4 6 0 8 -9 5 -9 -4 -31 8 -54 28 -21 19
-44 32 -51 30 -7 -3 -13 0 -13 6 0 6 -3 9 -6 5 -4 -3 -20 1 -36 9 -36 19 -129
36 -181 34 -27 -1 -37 3 -32 11 6 8 2 8 -14 0 -12 -7 -26 -9 -31 -6 -20 12
-242 8 -462 -10 -69 -5 -159 -25 -192 -42 -19 -10 -26 -11 -21 -2 6 8 4 10 -6
3 -8 -4 -23 -10 -34 -11 -10 -2 -22 -7 -25 -11 -5 -7 -27 -14 -47 -15 -7 0
-13 -4 -13 -8 0 -4 -13 -10 -28 -14 -15 -3 -40 -16 -54 -30 -20 -18 -28 -21
-38 -12 -10 9 -11 9 -6 -1 8 -13 -51 -69 -67 -64 -5 1 -6 -2 -2 -8 3 -5 2 -10
-2 -10 -5 0 -16 -13 -26 -29 -12 -20 -24 -29 -37 -26 -17 3 -18 1 -8 -15 10
-15 9 -23 -5 -38 -9 -10 -17 -22 -17 -27 0 -5 -7 -16 -16 -26 -8 -9 -17 -30
-18 -45 -5 -40 -5 -41 -14 -26 -6 9 -9 4 -10 -15 -2 -35 -7 -64 -14 -83 -7
-18 -37 -162 -42 -205 -2 -16 -9 -68 -15 -115 -5 -47 -13 -137 -17 -200 -3
-63 -8 -118 -10 -122 -2 -4 -7 -195 -10 -425 -4 -326 -2 -463 10 -623 16 -209
35 -327 50 -313 5 4 6 -2 3 -15 -3 -12 -1 -22 3 -22 5 0 12 -10 15 -22 4 -13
17 -31 29 -41 11 -10 15 -16 9 -12 -7 3 -13 4 -13 1 0 -2 25 -17 55 -32 30
-15 52 -30 50 -32 -8 -9 -50 -8 -67 0 -13 6 -16 5 -13 -4 4 -11 -36 -13 -202
-12 -254 1 -300 9 -258 44 8 7 15 9 15 6 0 -13 58 60 64 82 4 12 12 19 18 16
7 -5 9 0 6 14 -4 12 -3 22 2 22 4 0 10 19 13 42 3 24 8 54 12 68 20 77 29 293
29 675 0 467 -21 861 -55 1045 -6 30 -12 64 -13 75 -2 11 -7 39 -10 63 -4 24
-16 63 -26 87 -11 25 -17 45 -14 45 2 0 -3 11 -12 25 -9 14 -14 25 -10 25 3 0
-3 16 -14 36 -11 19 -15 32 -9 29 18 -12 -6 28 -40 64 -17 18 -31 37 -31 43 0
5 -6 6 -12 2 -9 -6 -9 -3 0 9 12 14 11 16 -7 12 -12 -2 -19 0 -16 5 3 4 2 10
-2 12 -5 2 -19 16 -33 33 -14 16 -18 24 -9 17 13 -9 16 -9 16 3 0 8 -4 12 -9
9 -4 -3 -8 0 -8 7 0 7 -6 4 -14 -7 -13 -16 -17 -17 -28 -5 -11 12 -11 13 1 6
10 -5 12 -4 7 4 -4 6 -11 9 -16 6 -5 -3 -25 6 -46 20 -20 14 -43 25 -50 25 -8
0 -14 4 -14 8 0 4 -10 9 -22 9 -13 1 -24 6 -26 11 -1 5 -14 7 -29 4 -14 -3
-23 -1 -20 4 3 5 -9 10 -26 10 -18 1 -57 8 -87 17 -121 33 -472 51 -615 32
-33 -5 -71 -9 -85 -10 -48 -4 -111 -18 -116 -26 -3 -5 -13 -9 -22 -9 -9 0 -35
-9 -57 -19 -22 -10 -43 -18 -48 -19 -13 -3 -35 -27 -31 -33 3 -6 -24 -21 -35
-20 -13 1 -7 37 10 67 10 19 16 34 14 34 -3 0 5 17 18 38 13 20 22 43 20 50
-4 11 9 17 30 13 5 -1 6 3 2 9 -3 6 -12 8 -18 4 -7 -3 -3 2 7 10 11 9 16 16
10 16 -5 0 -4 4 2 8 6 4 21 26 33 50 14 27 26 40 34 36 7 -4 9 -4 5 1 -4 4 -2
15 5 23 10 13 9 14 -3 7 -13 -8 -13 -6 -1 8 7 9 18 14 24 10 5 -3 7 -1 3 5 -7
12 38 65 47 55 4 -3 7 3 7 15 0 12 5 22 11 22 5 0 7 5 4 10 -3 6 -1 10 6 10 7
0 9 3 6 7 -4 3 3 11 15 17 11 6 26 20 32 31 6 11 18 26 26 33 13 12 13 13 0 6
-8 -4 3 9 24 29 22 20 41 37 43 37 2 0 -3 -12 -11 -27 -13 -28 -11 -97 4 -88
4 2 12 -7 19 -21 7 -16 17 -24 26 -20 9 3 12 0 9 -9 -6 -14 43 -30 86 -27 20
1 21 0 7 -6 -18 -8 2 -10 143 -14 54 -2 241 10 270 17 8 2 35 7 60 10 25 3 54
10 65 15 58 25 114 38 119 27 2 -7 5 -3 5 7 1 11 4 17 7 13 3 -3 24 5 45 19
22 14 44 22 49 19 6 -4 7 1 3 11 -4 12 -3 15 5 10 7 -4 15 -1 18 8 3 9 11 13
16 10 5 -4 25 10 43 29 18 19 37 32 41 29 4 -4 4 1 1 11 -4 9 -3 17 2 17 4 0
20 29 36 65 16 36 32 65 35 65 3 0 7 9 8 20 1 11 3 29 4 39 1 11 6 18 10 15 4
-2 7 32 7 75 0 44 -4 83 -10 87 -6 3 -3 12 8 21 10 8 12 12 6 8 -7 -3 -13 -1
-13 5 0 6 -5 8 -12 4 -7 -5 -8 -3 -4 5 5 7 15 10 23 7 8 -3 11 -1 8 4 -4 6
-12 9 -18 8 -17 -4 -77 43 -70 55 3 6 1 7 -5 3 -7 -4 -20 -2 -29 4 -15 10 -15
11 -1 6 9 -2 19 -2 22 2 8 7 28 11 81 16 22 2 40 5 40 5 0 1 36 4 79 7 44 2
81 6 82 7 3 2 117 0 124 -3z m-401 -87 c48 -36 63 -79 57 -168 -11 -180 -107
-322 -271 -400 -224 -107 -696 -129 -797 -38 -24 22 -23 74 3 126 30 59 178
201 279 268 278 185 627 286 729 212z m852 12 c110 -21 187 -48 334 -120 260
-127 484 -331 487 -446 2 -70 -71 -99 -267 -106 -217 -8 -436 31 -574 103
-151 79 -251 242 -251 410 0 95 23 137 87 159 50 18 91 18 184 0z m-1991 -599
c0 -2 -8 -10 -17 -17 -16 -13 -17 -12 -4 4 13 16 21 21 21 13z"/>
<path d="M3098 3353 c7 -3 16 -2 19 1 4 3 -2 6 -13 5 -11 0 -14 -3 -6 -6z"/>
<path d="M3178 3353 c7 -3 16 -2 19 1 4 3 -2 6 -13 5 -11 0 -14 -3 -6 -6z"/>
<path d="M3950 2950 c0 -5 5 -10 11 -10 5 0 7 5 4 10 -3 6 -8 10 -11 10 -2 0
-4 -4 -4 -10z"/>
<path d="M3284 3756 c1 -8 5 -18 8 -22 4 -3 5 1 4 10 -1 8 -5 18 -8 22 -4 3
-5 -1 -4 -10z"/>
<path d="M3470 3606 c0 -2 8 -10 18 -17 15 -13 16 -12 3 4 -13 16 -21 21 -21
13z"/>
<path d="M370 1558 c-2 -41 179 -408 202 -408 4 0 -7 24 -26 53 -39 60 -146
279 -146 299 -1 14 -29 68 -30 56z"/>
<path d="M4016 1444 c-9 -20 -15 -39 -12 -41 3 -3 12 12 21 32 20 49 14 56 -9
9z"/>
<path d="M3972 1347 c-12 -23 -22 -46 -22 -52 0 -5 12 12 26 39 14 26 24 49
22 51 -2 2 -14 -15 -26 -38z"/>
<path d="M3904 1218 c-22 -42 -98 -151 -151 -217 -23 -29 -43 -58 -43 -64 0
-6 16 11 36 36 20 26 41 44 47 40 6 -3 7 -1 3 5 -9 15 34 73 47 65 6 -3 7 -2
4 3 -3 6 5 28 18 49 41 68 66 115 60 115 -2 0 -12 -14 -21 -32z"/>
<path d="M580 1134 c0 -11 58 -94 66 -94 3 0 -1 10 -8 23 -7 12 -11 27 -9 32
1 5 -1 7 -5 2 -4 -4 -16 5 -26 20 -10 16 -18 23 -18 17z"/>
<path d="M730 932 c0 -12 19 -26 26 -19 2 2 -2 10 -11 17 -9 8 -15 8 -15 2z"/>
<path d="M3680 915 c-7 -9 -10 -18 -7 -21 3 -3 10 4 17 15 13 25 8 27 -10 6z"/>
<path d="M816 836 c3 -9 11 -16 16 -16 13 0 5 23 -10 28 -7 2 -10 -2 -6 -12z"/>
<path d="M930 735 c0 -3 9 -14 20 -25 22 -22 26 -14 6 13 -13 16 -26 23 -26
12z"/>
<path d="M3210 586 c0 -2 8 -10 18 -17 15 -13 16 -12 3 4 -13 16 -21 21 -21
13z"/>
</g>
</svg>
